<svg width="275" height="282" viewBox="0 0 275 282" fill="none" xmlns="http://www.w3.org/2000/svg">
<path d="M72.8178 112.435C72.5829 101.305 75.563 89.9537 80.3063 81.3547C85.1315 72.6072 91.3395 67.4207 97.2531 67.1037C103.174 66.7863 109.587 71.2818 114.765 79.4651C119.857 87.511 123.304 98.4886 123.539 109.61C123.714 117.875 121.193 124.797 116.867 129.827C112.555 134.84 106.309 138.137 98.708 138.94C91.1158 139.349 84.797 136.877 80.3152 132.341C75.8052 127.777 72.9977 120.957 72.8178 112.435Z" fill="#BDE8EF" stroke="#0B2F73" stroke-width="5"/>
<path d="M109.625 101.647C114.688 89.0504 123.444 78.0348 132.869 71.0958C142.415 64.068 152.002 61.6445 159.038 64.7845C166.08 67.9275 171.107 76.8511 172.967 88.9326C174.803 100.863 173.397 115.12 168.339 127.706C164.565 137.095 158.399 143.476 151.069 146.685C143.752 149.889 135.081 150.017 126.111 146.544C117.325 142.629 111.356 136.164 108.479 128.413C105.59 120.629 105.738 111.32 109.625 101.647Z" fill="#FFD4E5" stroke="#0B2F73" stroke-width="5"/>
<path d="M148.078 125.279C152.574 116.513 159.841 109.163 167.421 104.832C175.101 100.444 182.501 99.4551 187.653 102.212C192.81 104.972 196.234 111.738 197.08 120.662C197.916 129.471 196.143 139.732 191.651 148.49C188.337 154.95 183.366 159.053 177.661 160.806C171.954 162.56 165.307 162.022 158.555 158.81C151.974 155.291 147.737 150.154 145.926 144.385C144.11 138.602 144.657 131.948 148.078 125.279Z" fill="#FEFFA2" stroke="#0B2F73" stroke-width="5"/>
<path d="M43.1508 97.956C70.6433 38.0784 94.8138 20.3116 151.891 25.8657C157.3 26.392 162.639 27.8166 167.596 30.0437C226.791 56.641 234.81 86.7216 230.54 148.167M43.1508 97.956L42.2861 97.7243C38.1624 96.6194 34.0098 99.4367 33.6404 103.69V103.69M43.1508 97.956L70.1967 105.203L109.8 115.815L166.306 130.955L204.46 141.179L230.54 148.167M230.54 148.167L231.436 148.407C235.582 149.518 237.833 154.009 236.121 157.945V157.945M77.0709 201.255L147.1 220.019M77.0709 201.255V201.255C74.8553 209.524 79.7623 218.023 88.031 220.239L128.117 230.98C136.386 233.195 144.885 228.288 147.1 220.019V220.019M77.0709 201.255C41.3447 173.654 29.4093 152.408 33.6404 103.69M147.1 220.019C195.255 216.236 216.435 203.203 236.121 157.945M33.6404 103.69L236.121 157.945" stroke="#91663F" stroke-width="11"/>
<path d="M40.4141 101.347L233.116 152.981" stroke="#F7B87E" stroke-width="4" stroke-linecap="round"/>
<path d="M79.4458 195.745C44.8135 169.832 36.2587 151.069 38.9119 110.62L228.586 160.782C207.97 206.8 187.538 213.027 146.702 214.431L79.4458 195.745Z" fill="#F7B87E"/>
<path d="M83.0996 210.302L135.654 224.881" stroke="#F7B87E" stroke-width="6" stroke-linecap="round"/>
</svg>
