<svg width="190" height="118" viewBox="0 0 190 118" fill="none" xmlns="http://www.w3.org/2000/svg">
<path d="M38.9341 44.6928L40.9297 44.5937L41.2729 42.6253C43.2848 31.0878 49.2607 21.547 59.3594 13.939C69.4667 6.32452 81.2295 2.5 94.7512 2.5C109.993 2.5 122.817 7.19289 133.373 16.5297C143.919 25.8624 149.102 37.07 149.102 50.283V58.6635V61.1635H151.602H157.393C165.911 61.4117 172.923 64.161 178.585 69.3482L178.586 69.3491C184.244 74.528 187.002 80.6985 187.002 87.9953C187.002 95.465 184.132 101.739 178.238 106.957C172.318 112.182 165.071 114.827 156.34 114.827H42.638C31.3811 114.827 21.9175 111.371 14.1002 104.504C6.30535 97.6512 2.5 89.446 2.5 79.7573C2.5 70.881 5.89997 62.9729 12.9034 55.9454C19.863 48.9672 28.4911 45.2112 38.9341 44.6928Z" fill="white" stroke="#0B2F73" stroke-width="5"/>
</svg>
