<svg width="274" height="180" viewBox="0 0 274 180" fill="none" xmlns="http://www.w3.org/2000/svg">
<path d="M34.6409 131.864C26.7469 114.728 23.7783 94.9331 25.4691 78.0887C27.1752 61.0909 33.5064 47.8875 43.3856 42.742C53.2715 37.593 66.9478 40.34 80.5987 49.2876C94.1277 58.1554 106.991 72.7421 114.878 89.8633C120.798 102.714 121.55 115.538 118.015 126.784C114.484 138.016 106.612 147.886 94.9078 154.74C82.9161 161.002 70.9022 161.767 60.4233 157.822C49.9141 153.866 40.7325 145.088 34.6409 131.864Z" fill="#FFD4E5" stroke="#0B2F73" stroke-width="5"/>
<path d="M82.9253 96.1083C82.472 73.3596 88.8318 50.3614 98.9744 33.0272C109.19 15.5682 122.823 4.49285 136.647 4.19086C150.478 3.88872 164.536 14.3189 175.429 31.2618C186.245 48.0851 193.507 70.7272 193.96 93.4565C194.301 110.558 188.854 124.904 179.33 135.254C169.814 145.594 156.082 152.105 139.55 153.279C122.974 153.661 109.048 148.049 99.1712 138.116C89.2736 128.162 83.2757 113.697 82.9253 96.1083Z" fill="#BDE8EF" stroke="#0B2F73" stroke-width="5"/>
<path d="M165.227 91.1032C172.848 76.3648 185.125 64.1029 197.956 56.9443C210.884 49.7318 223.785 47.9873 233.037 53.1079C242.296 58.2318 248.064 70.2756 249.452 85.3651C250.83 100.343 247.799 117.672 240.184 132.398C234.492 143.405 225.922 150.408 216.023 153.31C206.12 156.213 194.683 155.067 183.183 149.385C171.939 143.176 164.611 134.182 161.485 124.063C158.356 113.932 159.366 102.437 165.227 91.1032Z" fill="#FEFFA2" stroke="#0B2F73" stroke-width="5"/>
</svg>
